# xmcd
#
# Track frame offsets:
#	150
#	11380
#	23330
#	35360
#	47690
#	64180
#	75090
#	84620
#	94990
#	104620
#	115530
#	123440
#	137030
#	149560
#	162870
#	183740
#	198050
#	210400
#	224890
#	240020
#	256970
#
# Disc length: 3635 seconds
#
# Revision: 1
# Processed by: cddbd v1.5.2PL0 Copyright (c) Steve Scherf et al.
# Submitted via: audiograbber 1.83.01
#
DISCID=150e3115
DTITLE=Johnny Cash - Ring Of fire - The Johnny Cash Legend
DYEAR=1900
DGENRE=
TTITLE0=Ring Of Fire - The Legend Of Johnny Cash - Ring Of Fire
TTITLE1=Ring Of Fire - The Legend Of Johnny Cash - I Walk The Line
TTITLE2=Ring Of Fire - The Legend Of Johnny Cash - Jackson
TTITLE3=Ring Of Fire - The Legend Of Johnny Cash - Folsom Prison Blues
TTITLE4=Ring Of Fire - The Legend Of Johnny Cash - A Boy Named Sue (Live)
TTITLE5=Ring Of Fire - The Legend Of Johnny Cash - Big River
TTITLE6=Ring Of Fire - The Legend Of Johnny Cash - Get Rhythm
TTITLE7=Ring Of Fire - The Legend Of Johnny Cash - Cry! Cry! Cry!
TTITLE8=Ring Of Fire - The Legend Of Johnny Cash - Hey Porter
TTITLE9=Ring Of Fire - The Legend Of Johnny Cash - A Thing Called Love
TTITLE10=Ring Of Fire - The Legend Of Johnny Cash - Guess Things Happen That Wa
TTITLE10=y
TTITLE11=Ring Of Fire - The Legend Of Johnny Cash - San Quentin (Live)
TTITLE12=Ring Of Fire - The Legend Of Johnny Cash - Man In Black
TTITLE13=Ring Of Fire - The Legend Of Johnny Cash - Highwayman
TTITLE14=Ring Of Fire - The Legend Of Johnny Cash - The Wanderer (U2 Starring J
TTITLE14=ohnny Cash)
TTITLE15=Ring Of Fire - The Legend Of Johnny Cash - I've Been Everywhere
TTITLE16=Ring Of Fire - The Legend Of Johnny Cash - Rusty Cage
TTITLE17=Ring Of Fire - The Legend Of Johnny Cash - Personal Jesus
TTITLE18=Ring Of Fire - The Legend Of Johnny Cash - Give My Love To Rose
TTITLE19=Ring Of Fire - The Legend Of Johnny Cash - One
TTITLE20=Ring Of Fire - The Legend Of Johnny Cash - Hurt
EXTD=
EXTT0=
EXTT1=
EXTT2=
EXTT3=
EXTT4=
EXTT5=
EXTT6=
EXTT7=
EXTT8=
EXTT9=
EXTT10=
EXTT11=
EXTT12=
EXTT13=
EXTT14=
EXTT15=
EXTT16=
EXTT17=
EXTT18=
EXTT19=
EXTT20=
PLAYORDER=
